<?xml version="1.0" encoding="utf-8"?>
<svg version="1.1" xmlns:xlink="http://www.w3.org/1999/xlink" width="110px" height="70px" xmlns="http://www.w3.org/2000/svg">
  <defs>
    <linearGradient gradientUnits="userSpaceOnUse" x1="741" y1="125" x2="741" y2="195" id="LinearGradient14">
      <stop id="Stop15" stop-color="#ffffff" offset="0" />
      <stop id="Stop16" stop-color="#f2f2f2" offset="0" />
      <stop id="Stop17" stop-color="#e4e4e4" offset="1" />
      <stop id="Stop18" stop-color="#ffffff" offset="1" />
    </linearGradient>
  </defs>
  <g transform="matrix(1 0 0 1 -686 -125 )">
    <path d="M 696.5 194.5  L 795.5 194.5  L 795.5 135.5  L 790.5 135.5  L 790.5 130.5  L 785.5 130.5  L 785.5 125.5  L 686.5 125.5  L 686.5 184.5  L 691.5 184.5  L 691.5 189.5  L 696.5 189.5  L 696.5 194.5  Z " fill-rule="nonzero" fill="url(#LinearGradient14)" stroke="none" />
    <path d="M 696.5 194.5  L 795.5 194.5  L 795.5 135.5  L 790.5 135.5  L 790.5 130.5  L 785.5 130.5  L 785.5 125.5  L 686.5 125.5  L 686.5 184.5  L 691.5 184.5  L 691.5 189.5  L 696.5 189.5  L 696.5 194.5  Z " stroke-width="1" stroke="#797979" fill="none" />
    <path d="M 790.5 136  L 790.5 189.5  L 697 189.5  M 785.5 131  L 785.5 184.5  L 692 184.5  " stroke-width="1" stroke="#797979" fill="none" />
  </g>
</svg>