<?xml version="1.0" encoding="utf-8"?>
<svg version="1.1" xmlns:xlink="http://www.w3.org/1999/xlink" width="18px" height="19px" preserveAspectRatio="xMidYMin meet" viewBox="172 1663  16 19" xmlns="http://www.w3.org/2000/svg">
  <path d="M 180.5 1095  L 180.5 1671  " stroke-width="1" stroke="#0033ff" fill="none" />
  <path d="M 180.5 1090  A 3 3 0 0 0 177.5 1093 A 3 3 0 0 0 180.5 1096 A 3 3 0 0 0 183.5 1093 A 3 3 0 0 0 180.5 1090 Z M 180.5 1091  A 2 2 0 0 1 182.5 1093 A 2 2 0 0 1 180.5 1095 A 2 2 0 0 1 178.5 1093 A 2 2 0 0 1 180.5 1091 Z M 174.2 1670  L 180.5 1676  L 186.8 1670  L 174.2 1670  Z " fill-rule="nonzero" fill="#0033ff" stroke="none" />
</svg>