<?xml version="1.0" encoding="utf-8"?>
<svg version="1.1" xmlns:xlink="http://www.w3.org/1999/xlink" width="10px" height="212px" preserveAspectRatio="xMidYMin meet" viewBox="179 1736  8 212" xmlns="http://www.w3.org/2000/svg">
  <path d="M 183.5 1741  L 183.5 1938  " stroke-width="1" stroke="#0033ff" fill="none" />
  <path d="M 183.5 1736  A 3 3 0 0 0 180.5 1739 A 3 3 0 0 0 183.5 1742 A 3 3 0 0 0 186.5 1739 A 3 3 0 0 0 183.5 1736 Z M 183.5 1737  A 2 2 0 0 1 185.5 1739 A 2 2 0 0 1 183.5 1741 A 2 2 0 0 1 181.5 1739 A 2 2 0 0 1 183.5 1737 Z M 177.2 1937  L 183.5 1943  L 189.8 1937  L 177.2 1937  Z " fill-rule="nonzero" fill="#0033ff" stroke="none" />
</svg>