<?xml version="1.0" encoding="utf-8"?>
<svg version="1.1" xmlns:xlink="http://www.w3.org/1999/xlink" width="12px" height="12px" viewBox="653 319.5  12 12" xmlns="http://www.w3.org/2000/svg">
  <path d="M 659 319.5  C 662.36 319.5  665 322.14  665 325.5  C 665 328.86  662.36 331.5  659 331.5  C 655.64 331.5  653 328.86  653 325.5  C 653 322.14  655.64 319.5  659 319.5  Z " fill-rule="nonzero" fill="#ffffff" stroke="none" />
  <path d="M 659 320  C 662.08 320  664.5 322.42  664.5 325.5  C 664.5 328.58  662.08 331  659 331  C 655.92 331  653.5 328.58  653.5 325.5  C 653.5 322.42  655.92 320  659 320  Z " stroke-width="1" stroke="#797979" fill="none" />
  <path d="M 659 328.5  C 657.32 328.5  656 327.18  656 325.5  C 656 323.82  657.32 322.5  659 322.5  C 660.68 322.5  662 323.82  662 325.5  C 662 327.18  660.68 328.5  659 328.5  " fill-rule="nonzero" fill="#797979" stroke="none" />
</svg>