<?xml version="1.0" encoding="utf-8"?>
<svg version="1.1" xmlns:xlink="http://www.w3.org/1999/xlink" width="12px" height="12px" viewBox="344 319.5  12 12" xmlns="http://www.w3.org/2000/svg">
  <path d="M 350 319.5  C 353.36 319.5  356 322.14  356 325.5  C 356 328.86  353.36 331.5  350 331.5  C 346.64 331.5  344 328.86  344 325.5  C 344 322.14  346.64 319.5  350 319.5  Z " fill-rule="nonzero" fill="#ffffff" stroke="none" />
  <path d="M 350 320  C 353.08 320  355.5 322.42  355.5 325.5  C 355.5 328.58  353.08 331  350 331  C 346.92 331  344.5 328.58  344.5 325.5  C 344.5 322.42  346.92 320  350 320  Z " stroke-width="1" stroke="#797979" fill="none" />
  <path d="M 350 328.5  C 348.32 328.5  347 327.18  347 325.5  C 347 323.82  348.32 322.5  350 322.5  C 351.68 322.5  353 323.82  353 325.5  C 353 327.18  351.68 328.5  350 328.5  " fill-rule="nonzero" fill="#797979" stroke="none" />
</svg>