<?xml version="1.0" encoding="utf-8"?>
<svg version="1.1" xmlns:xlink="http://www.w3.org/1999/xlink" width="28px" height="24px" xmlns="http://www.w3.org/2000/svg">
  <g transform="matrix(1 0 0 1 -218 -217 )">
    <path d="M 19.9609375 3.0859375  C 18.1119791666667 2.36197916666667  16.125 2  14 2  C 11.875 2  9.88802083333333 2.36197916666667  8.0390625 3.0859375  C 6.19010416666667 3.80989583333333  4.72135416666667 4.78645833333333  3.6328125 6.015625  C 2.54427083333333 7.24479166666666  2 8.57291666666666  2 10  C 2 11.1666666666667  2.37239583333333 12.2786458333333  3.1171875 13.3359375  C 3.86197916666667 14.3932291666667  4.91145833333333 15.3072916666667  6.265625 16.078125  L 7.625 16.859375  L 7.203125 18.359375  C 6.953125 19.3072916666667  6.58854166666667 20.203125  6.109375 21.046875  C 7.69270833333333 20.390625  9.125 19.5  10.40625 18.375  L 11.078125 17.78125  L 11.96875 17.875  C 12.6875 17.9583333333333  13.3645833333333 18  14 18  C 16.125 18  18.1119791666667 17.6380208333333  19.9609375 16.9140625  C 21.8098958333333 16.1901041666667  23.2786458333333 15.2135416666667  24.3671875 13.984375  C 25.4557291666667 12.7552083333333  26 11.4270833333333  26 10  C 26 8.57291666666666  25.4557291666667 7.24479166666666  24.3671875 6.015625  C 23.2786458333333 4.78645833333333  21.8098958333333 3.80989583333333  19.9609375 3.0859375  Z M 26.125 4.9765625  C 27.375 6.51302083333333  28 8.1875  28 10  C 28 11.8125  27.375 13.4869791666667  26.125 15.0234375  C 24.875 16.5598958333333  23.1770833333333 17.7734375  21.03125 18.6640625  C 18.8854166666667 19.5546875  16.5416666666667 20  14 20  C 13.2708333333333 20  12.515625 19.9583333333333  11.734375 19.875  C 9.671875 21.6979166666667  7.27604166666667 22.9583333333333  4.546875 23.65625  C 4.03645833333333 23.8020833333333  3.44270833333333 23.9166666666667  2.765625 24  L 2.6875 24  C 2.53125 24  2.390625 23.9453125  2.265625 23.8359375  C 2.140625 23.7265625  2.05729166666667 23.5833333333333  2.015625 23.40625  L 2.015625 23.390625  C 1.984375 23.3489583333333  1.98177083333333 23.2864583333333  2.0078125 23.203125  C 2.03385416666667 23.1197916666667  2.04427083333333 23.0677083333333  2.0390625 23.046875  C 2.03385416666667 23.0260416666667  2.05729166666667 22.9765625  2.109375 22.8984375  L 2.203125 22.7578125  C 2.203125 22.7578125  2.23958333333333 22.7135416666667  2.3125 22.625  C 2.38541666666667 22.5364583333333  2.42708333333333 22.4895833333333  2.4375 22.484375  C 2.51041666666667 22.4010416666667  2.671875 22.2213541666667  2.921875 21.9453125  C 3.171875 21.6692708333333  3.3515625 21.4713541666667  3.4609375 21.3515625  C 3.5703125 21.2317708333333  3.73177083333333 21.0260416666667  3.9453125 20.734375  C 4.15885416666667 20.4427083333333  4.328125 20.1770833333333  4.453125 19.9375  C 4.578125 19.6979166666667  4.71875 19.390625  4.875 19.015625  C 5.03125 18.640625  5.16666666666667 18.2447916666667  5.28125 17.828125  C 3.64583333333333 16.9010416666667  2.35677083333333 15.7552083333333  1.4140625 14.390625  C 0.471354166666667 13.0260416666667  0 11.5625  0 10  C 0 8.1875  0.625 6.51302083333333  1.875 4.9765625  C 3.125 3.44010416666667  4.82291666666667 2.2265625  6.96875 1.3359375  C 9.11458333333333 0.4453125  11.4583333333333 0  14 0  C 16.5416666666667 0  18.8854166666667 0.4453125  21.03125 1.3359375  C 23.1770833333333 2.2265625  24.875 3.44010416666667  26.125 4.9765625  Z " fill-rule="nonzero" fill="#000000" stroke="none" transform="matrix(1 0 0 1 218 217 )" />
  </g>
</svg>