<?xml version="1.0" encoding="utf-8"?>
<svg version="1.1" xmlns:xlink="http://www.w3.org/1999/xlink" width="32px" height="26px" xmlns="http://www.w3.org/2000/svg">
  <g transform="matrix(1 0 0 1 -387 -217 )">
    <path d="M 6.91732490784623 7.04488448844884  C 7.33859926276988 6.61584158415842  7.5492364402317 6.0981298129813  7.5492364402317 5.49174917491749  C 7.5492364402317 4.88536853685368  7.33859926276988 4.36765676567657  6.91732490784623 3.93861386138614  C 6.49605055292259 3.50957095709571  5.98771283131473 3.2950495049505  5.39231174302264 3.2950495049505  C 4.79691065473056 3.2950495049505  4.2885729331227 3.50957095709571  3.86729857819905 3.93861386138614  C 3.44602422327541 4.36765676567657  3.23538704581359 4.88536853685368  3.23538704581359 5.49174917491749  C 3.23538704581359 6.0981298129813  3.44602422327541 6.61584158415842  3.86729857819905 7.04488448844884  C 4.2885729331227 7.47392739273927  4.79691065473056 7.68844884488449  5.39231174302264 7.68844884488449  C 5.98771283131473 7.68844884488449  6.49605055292259 7.47392739273927  6.91732490784623 7.04488448844884  Z M 24.9057398630858 13.8151815181518  C 25.3213972266105 14.2613861386139  25.5292259083728 14.7819581958196  25.5292259083728 15.376897689769  C 25.5292259083728 15.9832783278328  25.3213972266105 16.4981298129813  24.9057398630858 16.9214521452145  L 16.6319115323855 25.3650165016502  C 16.1937862032649 25.7883388338834  15.6826399859575 26  15.0984728804634 26  C 14.5030717921713 26  13.9975425662629 25.7883388338834  13.5818852027383 25.3650165016502  L 1.53343865192206 13.0772277227723  C 1.10654730559944 12.6539053905391  0.744251360365105 12.0761276127613  0.446550816219063 11.3438943894389  C 0.148850272073021 10.6116611661166  0 9.94235423542354  0 9.33597359735973  L 0 2.196699669967  C 0 1.6017601760176  0.213445673161313 1.08690869086909  0.640337019483939 0.652145214521451  C 1.06722836580656 0.217381738173815  1.57275759171494 0  2.15692469720906 0  L 9.16692996313849 0  C 9.76233105143058 0  10.4195190451115 0.151595159515949  11.1384939441811 0.454785478547854  C 11.8574688432508 0.757975797579756  12.430401965947 1.12695269526952  12.8572933122696 1.56171617161716  L 24.9057398630858 13.8151815181518  Z M 31.376513954713 13.8151815181518  C 31.7921713182377 14.2613861386139  32 14.7819581958196  32 15.376897689769  C 32 15.9832783278328  31.7921713182377 16.4981298129813  31.376513954713 16.9214521452145  L 23.1026856240126 25.3650165016502  C 22.664560294892 25.7883388338834  22.1534140775847 26  21.5692469720906 26  C 21.1648235913639 26  20.8334210988239 25.9199119911991  20.5750394944708 25.7597359735974  C 20.3166578901176 25.5995599559956  20.0189573459716 25.3421342134213  19.6819378620326 24.9874587458746  L 27.6018957345972 16.9214521452145  C 28.0175530981218 16.4981298129813  28.2253817798841 15.9832783278328  28.2253817798841 15.376897689769  C 28.2253817798841 14.7819581958196  28.0175530981218 14.2613861386139  27.6018957345972 13.8151815181518  L 15.5534491837809 1.56171617161716  C 15.1265578374583 1.12695269526952  14.5536247147622 0.757975797579756  13.8346498156925 0.454785478547854  C 13.1156749166228 0.151595159515949  12.4584869229419 0  11.8630858346498 0  L 15.6377040547657 0  C 16.2331051430578 0  16.8902931367386 0.151595159515949  17.6092680358083 0.454785478547854  C 18.328242934878 0.757975797579756  18.9011760575742 1.12695269526952  19.3280674038968 1.56171617161716  L 31.376513954713 13.8151815181518  Z " fill-rule="nonzero" fill="#000000" stroke="none" transform="matrix(1 0 0 1 387 217 )" />
  </g>
</svg>