<?xml version="1.0" encoding="utf-8"?>
<svg version="1.1" xmlns:xlink="http://www.w3.org/1999/xlink" width="34px" height="29px" xmlns="http://www.w3.org/2000/svg">
  <g transform="matrix(1 0 0 1 -212 -119 )">
    <path d="M 11.4313616071429 10.3746744791667  C 11.9056919642857 10.8466796875  12.1428571428571 11.4162326388889  12.1428571428571 12.0833333333333  C 12.1428571428571 12.7504340277778  11.9056919642857 13.3199869791667  11.4313616071429 13.7919921875  C 10.95703125 14.2639973958333  10.3846726190476 14.5  9.71428571428571 14.5  C 9.04389880952381 14.5  8.47154017857143 14.2639973958333  7.99720982142857 13.7919921875  C 7.52287946428571 13.3199869791667  7.28571428571429 12.7504340277778  7.28571428571429 12.0833333333333  C 7.28571428571429 11.4162326388889  7.52287946428571 10.8466796875  7.99720982142857 10.3746744791667  C 8.47154017857143 9.90266927083333  9.04389880952381 9.66666666666667  9.71428571428571 9.66666666666667  C 10.3846726190476 9.66666666666667  10.95703125 9.90266927083333  11.4313616071429 10.3746744791667  Z M 18.7170758928571 10.3746744791667  C 19.19140625 10.8466796875  19.4285714285714 11.4162326388889  19.4285714285714 12.0833333333333  C 19.4285714285714 12.7504340277778  19.19140625 13.3199869791667  18.7170758928571 13.7919921875  C 18.2427455357143 14.2639973958333  17.6703869047619 14.5  17 14.5  C 16.3296130952381 14.5  15.7572544642857 14.2639973958333  15.2829241071429 13.7919921875  C 14.80859375 13.3199869791667  14.5714285714286 12.7504340277778  14.5714285714286 12.0833333333333  C 14.5714285714286 11.4162326388889  14.80859375 10.8466796875  15.2829241071429 10.3746744791667  C 15.7572544642857 9.90266927083333  16.3296130952381 9.66666666666667  17 9.66666666666667  C 17.6703869047619 9.66666666666667  18.2427455357143 9.90266927083333  18.7170758928571 10.3746744791667  Z M 26.0027901785714 10.3746744791667  C 26.4771205357143 10.8466796875  26.7142857142857 11.4162326388889  26.7142857142857 12.0833333333333  C 26.7142857142857 12.7504340277778  26.4771205357143 13.3199869791667  26.0027901785714 13.7919921875  C 25.5284598214286 14.2639973958333  24.9561011904762 14.5  24.2857142857143 14.5  C 23.6153273809524 14.5  23.04296875 14.2639973958333  22.5686383928571 13.7919921875  C 22.0943080357143 13.3199869791667  21.8571428571429 12.7504340277778  21.8571428571429 12.0833333333333  C 21.8571428571429 11.4162326388889  22.0943080357143 10.8466796875  22.5686383928571 10.3746744791667  C 23.04296875 9.90266927083333  23.6153273809524 9.66666666666667  24.2857142857143 9.66666666666667  C 24.9561011904762 9.66666666666667  25.5284598214286 9.90266927083333  26.0027901785714 10.3746744791667  Z M 24.23828125 3.72884114583333  C 21.9931175595238 2.85405815972222  19.5803571428571 2.41666666666667  17 2.41666666666667  C 14.4196428571429 2.41666666666667  12.0068824404762 2.85405815972222  9.76171875 3.72884114583333  C 7.51655505952381 4.60362413194444  5.73307291666667 5.78363715277778  4.41127232142857 7.26888020833333  C 3.08947172619048 8.75412326388889  2.42857142857143 10.3589409722222  2.42857142857143 12.0833333333333  C 2.42857142857143 13.4930555555556  2.88076636904762 14.8366970486111  3.78515625 16.1142578125  C 4.68954613095238 17.3918185763889  5.96391369047619 18.4963107638889  7.60825892857143 19.427734375  L 9.25892857142857 20.3717447916667  L 8.74665178571429 22.1842447916667  C 8.44308035714286 23.3296440972222  8.00037202380952 24.412109375  7.41852678571429 25.431640625  C 9.34114583333333 24.638671875  11.0803571428571 23.5625  12.6361607142857 22.203125  L 13.4520089285714 21.4856770833333  L 14.5334821428571 21.5989583333333  C 15.40625 21.6996527777778  16.2284226190476 21.75  17 21.75  C 19.5803571428571 21.75  21.9931175595238 21.3126085069444  24.23828125 20.4378255208333  C 26.4834449404762 19.5630425347222  28.2669270833333 18.3830295138889  29.5887276785714 16.8977864583333  C 30.9105282738095 15.4125434027778  31.5714285714286 13.8077256944444  31.5714285714286 12.0833333333333  C 31.5714285714286 10.3589409722222  30.9105282738095 8.75412326388889  29.5887276785714 7.26888020833333  C 28.2669270833333 5.78363715277778  26.4834449404762 4.60362413194444  24.23828125 3.72884114583333  Z M 32.6529017857143 7.3916015625  C 33.5509672619048 8.88313802083333  34 10.4470486111111  34 12.0833333333333  C 34 14.2734375  33.2410714285714 16.2967664930556  31.7232142857143 18.1533203125  C 30.2053571428571 20.0098741319444  28.1436011904762 21.4762369791667  25.5379464285714 22.5524088541667  C 22.9322916666667 23.6285807291667  20.0863095238095 24.1666666666667  17 24.1666666666667  C 16.1145833333333 24.1666666666667  15.1975446428571 24.1163194444444  14.2488839285714 24.015625  C 11.7444196428571 26.2183159722222  8.83519345238095 27.7413194444444  5.52120535714286 28.5846354166667  C 4.90141369047619 28.7608506944444  4.18043154761905 28.8993055555556  3.35825892857143 29  L 3.26339285714286 29  C 3.07366071428571 29  2.90290178571429 28.9339192708333  2.75111607142857 28.8017578125  C 2.59933035714286 28.6695963541667  2.49813988095238 28.4965277777778  2.44754464285714 28.2825520833333  L 2.44754464285714 28.263671875  C 2.40959821428571 28.2133246527778  2.40643601190476 28.1378038194444  2.43805803571429 28.037109375  C 2.46968005952381 27.9364149305556  2.48232886904762 27.8734809027778  2.47600446428571 27.8483072916667  C 2.46968005952381 27.8231336805556  2.49813988095238 27.7633463541667  2.56138392857143 27.6689453125  L 2.67522321428571 27.4990234375  C 2.67522321428571 27.4990234375  2.71949404761905 27.4455295138889  2.80803571428571 27.3385416666667  C 2.89657738095238 27.2315538194444  2.94717261904762 27.1749131944444  2.95982142857143 27.1686197916667  C 3.0483630952381 27.0679253472222  3.24441964285714 26.8508029513889  3.54799107142857 26.5172526041667  C 3.8515625 26.1837022569444  4.06975446428571 25.9445529513889  4.20256696428571 25.7998046875  C 4.33537946428571 25.6550564236111  4.53143601190476 25.4064670138889  4.79073660714286 25.0540364583333  C 5.05003720238095 24.7016059027778  5.25558035714286 24.3806423611111  5.40736607142857 24.0911458333333  C 5.55915178571429 23.8016493055556  5.72991071428571 23.4303385416667  5.91964285714286 22.9772135416667  C 6.109375 22.5240885416667  6.27380952380952 22.0457899305556  6.41294642857143 21.5423177083333  C 4.42708333333333 20.4220920138889  2.8617931547619 19.0375434027778  1.71707589285714 17.388671875  C 0.572358630952381 15.7398003472222  0 13.9713541666667  0 12.0833333333333  C 0 10.4470486111111  0.449032738095238 8.88313802083333  1.34709821428571 7.3916015625  C 2.24516369047619 5.90006510416667  3.453125 4.61306423611111  4.97098214285714 3.53059895833333  C 6.48883928571429 2.44813368055555  8.29761904761905 1.58908420138888  10.3973214285714 0.953450520833332  C 12.4970238095238 0.317816840277776  14.6979166666667 0  17 0  C 19.3020833333333 0  21.5029761904762 0.317816840277776  23.6026785714286 0.953450520833332  C 25.702380952381 1.58908420138888  27.5111607142857 2.44813368055555  29.0290178571429 3.53059895833333  C 30.546875 4.61306423611111  31.7548363095238 5.90006510416667  32.6529017857143 7.3916015625  Z " fill-rule="nonzero" fill="#000000" stroke="none" transform="matrix(1 0 0 1 212 119 )" />
  </g>
</svg>