<?xml version="1.0" encoding="utf-8"?>
<svg version="1.1" xmlns:xlink="http://www.w3.org/1999/xlink" width="31px" height="27px" xmlns="http://www.w3.org/2000/svg">
  <g transform="matrix(1 0 0 1 -563 -217 )">
    <path d="M 25.5334821428571 14.484375  C 27.7016369047619 12.28125  28.7857142857143 10.1953125  28.7857142857143 8.2265625  C 28.7857142857143 7.27734375  28.6617373511905 6.439453125  28.4137834821429 5.712890625  C 28.1658296130952 4.986328125  27.8486793154762 4.4091796875  27.4623325892857 3.9814453125  C 27.0759858630952 3.5537109375  26.6060267857143 3.205078125  26.0524553571429 2.935546875  C 25.4988839285714 2.666015625  24.9568452380952 2.484375  24.4263392857143 2.390625  C 23.8958333333333 2.296875  23.3307291666667 2.25  22.7310267857143 2.25  C 22.1313244047619 2.25  21.4854910714286 2.3994140625  20.7935267857143 2.6982421875  C 20.1015625 2.9970703125  19.4643787202381 3.3720703125  18.8819754464286 3.8232421875  C 18.2995721726191 4.2744140625  17.80078125 4.6962890625  17.3856026785714 5.0888671875  C 16.9704241071429 5.4814453125  16.6244419642857 5.841796875  16.34765625 6.169921875  C 16.1400669642857 6.427734375  15.8575148809524 6.556640625  15.5 6.556640625  C 15.1424851190476 6.556640625  14.8599330357143 6.427734375  14.65234375 6.169921875  C 14.3755580357143 5.841796875  14.0295758928571 5.4814453125  13.6143973214286 5.0888671875  C 13.19921875 4.6962890625  12.700427827381 4.2744140625  12.1180245535714 3.8232421875  C 11.5356212797619 3.3720703125  10.8984375 2.9970703125  10.2064732142857 2.6982421875  C 9.51450892857143 2.3994140625  8.8686755952381 2.25  8.26897321428572 2.25  C 7.66927083333333 2.25  7.10416666666667 2.296875  6.57366071428571 2.390625  C 6.04315476190476 2.484375  5.50111607142857 2.666015625  4.94754464285714 2.935546875  C 4.39397321428571 3.205078125  3.92401413690476 3.5537109375  3.53766741071429 3.9814453125  C 3.15132068452381 4.4091796875  2.83417038690476 4.986328125  2.58621651785714 5.712890625  C 2.33826264880952 6.439453125  2.21428571428571 7.27734375  2.21428571428571 8.2265625  C 2.21428571428571 10.1953125  3.29259672619048 12.275390625  5.44921875 14.466796875  L 15.5 24.310546875  L 25.5334821428571 14.484375  Z M 28.8030133928571 2.1796875  C 30.2676711309524 3.6328125  31 5.6484375  31 8.2265625  C 31 10.81640625  29.6795014880952 13.453125  27.0385044642857 16.13671875  L 16.2611607142857 26.68359375  C 16.0535714285714 26.89453125  15.7998511904762 27  15.5 27  C 15.2001488095238 27  14.9464285714286 26.89453125  14.7388392857143 26.68359375  L 3.94419642857143 16.1015625  C 3.82886904761905 16.0078125  3.67029389880952 15.85546875  3.46847098214286 15.64453125  C 3.26664806547619 15.43359375  2.94661458333333 15.0498046875  2.50837053571429 14.4931640625  C 2.07012648809524 13.9365234375  1.67801339285714 13.365234375  1.33203125 12.779296875  C 0.986049107142857 12.193359375  0.677548363095238 11.484375  0.406529017857143 10.65234375  C 0.135509672619048 9.8203125  0 9.01171875  0 8.2265625  C 0 5.6484375  0.732328869047619 3.6328125  2.19698660714286 2.1796875  C 3.6616443452381 0.7265625  5.68563988095238 0  8.26897321428572 0  C 8.98400297619048 0  9.71344866071428 0.125976562499998  10.4573102678571 0.377929687500001  C 11.201171875 0.629882812499998  11.8931361607143 0.969726562499998  12.533203125 1.3974609375  C 13.1732700892857 1.8251953125  13.7239583333333 2.2265625  14.1852678571429 2.6015625  C 14.6465773809524 2.9765625  15.0848214285714 3.375  15.5 3.796875  C 15.9151785714286 3.375  16.3534226190476 2.9765625  16.8147321428571 2.6015625  C 17.2760416666667 2.2265625  17.8267299107143 1.8251953125  18.466796875 1.3974609375  C 19.1068638392857 0.969726562499998  19.798828125 0.629882812499998  20.5426897321429 0.377929687500001  C 21.2865513392857 0.125976562499998  22.0159970238095 0  22.7310267857143 0  C 25.3143601190476 0  27.3383556547619 0.7265625  28.8030133928571 2.1796875  Z " fill-rule="nonzero" fill="#000000" stroke="none" transform="matrix(1 0 0 1 563 217 )" />
  </g>
</svg>