<?xml version="1.0" encoding="utf-8"?>
<svg version="1.1" xmlns:xlink="http://www.w3.org/1999/xlink" width="38px" height="30px" xmlns="http://www.w3.org/2000/svg">
  <g transform="matrix(1 0 0 1 -737 -216 )">
    <path d="M 20.9933035714286 3.83250532292406  C 19.1130952380952 3.0943931866572  17.0915178571429 2.72533711852378  14.9285714285714 2.72533711852378  C 12.765625 2.72533711852378  10.7440476190476 3.0943931866572  8.86383928571429 3.83250532292406  C 6.98363095238095 4.57061745919091  5.48865327380952 5.57132718239886  4.37890625 6.83463449254791  C 3.26915922619048 8.09794180269695  2.71428571428571 9.45351312987935  2.71428571428571 10.9013484740951  C 2.71428571428571 12.0652945351313  3.08891369047619 13.1866572036906  3.83816964285714 14.2654364797729  C 4.5874255952381 15.3442157558552  5.640625 16.2810503903478  6.99776785714286 17.0759403832505  L 9.0546875 18.2682753726047  L 8.3125 20.0567778566359  C 8.79315476190476 19.7728885734563  9.23139880952381 19.4960965223563  9.62723214285714 19.2264017033357  L 10.5602678571429 18.5663591199432  L 11.6841517857143 18.7792760823279  C 12.7868303571429 18.9779985805536  13.8683035714286 19.0773598296664  14.9285714285714 19.0773598296664  C 17.0915178571429 19.0773598296664  19.1130952380952 18.708303761533  20.9933035714286 17.9701916252661  C 22.8735119047619 17.2320794889993  24.3684895833333 16.2313697657913  25.4782366071429 14.9680624556423  C 26.5879836309524 13.7047551454933  27.1428571428571 12.3491838183109  27.1428571428571 10.9013484740951  C 27.1428571428571 9.45351312987935  26.5879836309524 8.09794180269695  25.4782366071429 6.83463449254791  C 24.3684895833333 5.57132718239886  22.8735119047619 4.57061745919091  20.9933035714286 3.83250532292406  Z M 7.43247767857143 1.45848119233499  C 9.72972470238095 0.486160397444996  12.2284226190476 0  14.9285714285714 0  C 17.6287202380952 0  20.1274181547619 0.486160397444996  22.4246651785714 1.45848119233499  C 24.721912202381 2.43080198722498  26.5349702380952 3.75443577004968  27.8638392857143 5.42938254080909  C 29.1927083333333 7.10432931156848  29.8571428571429 8.92831795599716  29.8571428571429 10.9013484740951  C 29.8571428571429 12.874378992193  29.1927083333333 14.6983676366217  27.8638392857143 16.3733144073811  C 26.5349702380952 18.0482611781405  24.721912202381 19.3718949609652  22.4246651785714 20.3442157558552  C 20.1274181547619 21.3165365507452  17.6287202380952 21.8026969481902  14.9285714285714 21.8026969481902  C 13.7127976190476 21.8026969481902  12.46875 21.6891412349184  11.1964285714286 21.4620298083747  C 9.44345238095238 22.7111426543648  7.47842261904762 23.6195883605394  5.30133928571429 24.1873669268985  C 4.79241071428571 24.3151171043293  4.18452380952381 24.4286728176011  3.47767857142857 24.528034066714  L 3.4140625 24.528034066714  C 3.25855654761905 24.528034066714  3.11365327380952 24.4712562100781  2.97935267857143 24.3577004968062  C 2.84505208333333 24.2441447835344  2.76376488095238 24.0951029098652  2.73549107142857 23.9105748757984  C 2.72135416666667 23.8679914833215  2.71428571428571 23.8218594748048  2.71428571428571 23.7721788502484  C 2.71428571428571 23.722498225692  2.71781994047619 23.6763662171753  2.72488839285714 23.6337828246984  C 2.7319568452381 23.5911994322214  2.74609375 23.5486160397445  2.76729910714286 23.5060326472676  L 2.8203125 23.3995741660752  C 2.8203125 23.3995741660752  2.84505208333333 23.360539389638  2.89453125 23.2824698367637  C 2.94401041666667 23.2044002838893  2.97228422619048 23.1689141234918  2.97935267857143 23.1760113555713  C 2.98642113095238 23.1831085876508  3.01822916666667 23.1476224272534  3.07477678571429 23.069552874379  C 3.13132440476191 22.9914833215046  3.15959821428571 22.9595457771469  3.15959821428571 22.9737402413059  C 3.23028273809524 22.888573456352  3.39285714285714 22.7111426543648  3.64732142857143 22.4414478353442  C 3.90178571428571 22.1717530163236  4.08556547619048 21.9623846699787  4.19866071428571 21.8133427963094  C 4.31175595238095 21.6643009226402  4.47079613095238 21.458481192335  4.67578125 21.1958836053939  C 4.88076636904762 20.9332860184528  5.05747767857143 20.6600425833925  5.20591517857143 20.3761533002129  C 5.35435267857143 20.0922640170334  5.49925595238095 19.7799858055358  5.640625 19.4393186657204  C 3.88764880952381 18.417317246274  2.5093005952381 17.1611071682044  1.50558035714286 15.6706884315117  C 0.501860119047619 14.180269694819  0 12.5904897090135  0 10.9013484740951  C 0 8.92831795599716  0.664434523809524 7.10432931156848  1.99330357142857 5.42938254080909  C 3.32217261904762 3.75443577004968  5.13523065476191 2.43080198722498  7.43247767857143 1.45848119233499  Z M 36.4944196428571 21.1320085166785  C 35.4906994047619 22.6153300212917  34.1123511904762 23.8679914833215  32.359375 24.8899929027679  C 32.500744047619 25.2306600425834  32.6456473214286 25.5429382540809  32.7940848214286 25.8268275372605  C 32.9425223214286 26.11071682044  33.1192336309524 26.3839602555004  33.32421875 26.6465578424415  C 33.5292038690476 26.9091554293825  33.6882440476191 27.1149751596877  33.8013392857143 27.264017033357  C 33.9144345238095 27.4130589070263  34.0982142857143 27.6224272533712  34.3526785714286 27.8921220723918  C 34.6071428571429 28.1618168914124  34.7697172619048 28.3392476933996  34.8404017857143 28.4244144783534  C 34.8545386904762 28.4386089425124  34.8828125 28.4705464868701  34.9252232142857 28.5202271114265  C 34.9676339285714 28.569907735983  34.9994419642857 28.6053938963804  35.0206473214286 28.6266855926189  C 35.0418526785714 28.6479772888573  35.0701264880952 28.6834634492548  35.10546875 28.7331440738112  C 35.1408110119048 28.7828246983676  35.1655505952381 28.8218594748048  35.1796875 28.8502484031228  L 35.2327008928571 28.9567068843151  C 35.2327008928571 28.9567068843151  35.2468377976191 28.999290276792  35.2751116071429 29.0844570617459  C 35.3033854166667 29.1696238466998  35.3069196428571 29.2157558552165  35.2857142857143 29.222853087296  C 35.2645089285714 29.2299503193754  35.2574404761905 29.2760823278921  35.2645089285714 29.361249112846  C 35.2220982142857 29.5599716110717  35.1302083333333 29.7161107168204  34.9888392857143 29.8296664300923  C 34.8474702380952 29.9432221433641  34.6919642857143 29.9929027679205  34.5223214285714 29.9787083037615  C 33.8154761904762 29.8793470546487  33.2075892857143 29.7657913413769  32.6986607142857 29.6380411639461  C 30.5215773809524 29.0702625975869  28.5565476190476 28.1618168914124  26.8035714285714 26.9127040454223  C 25.53125 27.1398154719659  24.2872023809524 27.2533711852378  23.0714285714286 27.2533711852378  C 19.2403273809524 27.2533711852378  15.9040178571429 26.3165365507452  13.0625 24.4428672817601  C 13.8824404761905 24.499645138396  14.5044642857143 24.528034066714  14.9285714285714 24.528034066714  C 17.2046130952381 24.528034066714  19.3887648809524 24.208658623137  21.4810267857143 23.569907735983  C 23.5732886904762 22.931156848829  25.4393601190476 22.0156139105749  27.0792410714286 20.8232789212207  C 28.8463541666667 19.5173882185947  30.2034970238095 18.0127750177431  31.1506696428571 16.3094393186657  C 32.0978422619048 14.6061036195884  32.5714285714286 12.8034066713982  32.5714285714286 10.9013484740951  C 32.5714285714286 9.8083747338538  32.4088541666667 8.72959545777147  32.0837053571429 7.66501064584812  C 33.9073660714286 8.67281760113556  35.3493303571429 9.9361249112846  36.4095982142857 11.4549325762952  C 37.4698660714286 12.9737402413059  38 14.6061036195884  38 16.3520227111427  C 38 18.05535841022  37.4981398809524 19.6486870120653  36.4944196428571 21.1320085166785  Z " fill-rule="nonzero" fill="#000000" stroke="none" transform="matrix(1 0 0 1 737 216 )" />
  </g>
</svg>